<svg width="32" height="32" viewBox="0 0 32 32" fill="none" xmlns="http://www.w3.org/2000/svg">
<path d="M23.5095 6.41195C27.7095 10.5426 27.7095 17.1533 23.5655 21.2293L16.0041 28.6666L8.44015 21.2293C7.45643 20.2681 6.67477 19.12 6.1411 17.8524C5.60743 16.5848 5.33252 15.2233 5.33252 13.8479C5.33252 12.4726 5.60743 11.1111 6.1411 9.84353C6.67477 8.57594 7.45643 7.42781 8.44015 6.46661L8.49615 6.41195C10.4964 4.43923 13.1928 3.33325 16.0021 3.33325C18.8115 3.33325 21.5093 4.43923 23.5095 6.41195ZM23.5095 6.41195C23.4535 6.35595 23.4535 6.35595 23.5095 6.41195ZM18.6668 12.6666C18.6668 13.3739 18.3859 14.0521 17.8858 14.5522C17.3857 15.0523 16.7074 15.3333 16.0001 15.3333C15.2929 15.3333 14.6146 15.0523 14.1145 14.5522C13.6144 14.0521 13.3335 13.3739 13.3335 12.6666C13.3335 11.9594 13.6144 11.2811 14.1145 10.781C14.6146 10.2809 15.2929 9.99995 16.0001 9.99995C16.7074 9.99995 17.3857 10.2809 17.8858 10.781C18.3859 11.2811 18.6668 11.9594 18.6668 12.6666Z" stroke="black" stroke-width="1.5" stroke-miterlimit="10" stroke-linecap="round" stroke-linejoin="round"/>
</svg>
