<?xml version="1.0" encoding="UTF-8"?>
<svg version="1.1" xmlns="http://www.w3.org/2000/svg" width="512" height="512">
<path d="M0 0 C0.76448771 0.28492121 1.52897541 0.56984241 2.31662941 0.8633976 C4.69360451 1.76426986 7.0480443 2.71044556 9.40234375 3.66894531 C10.29193692 4.02690343 11.18153009 4.38486155 12.09808064 4.75366688 C15.04621836 5.94107063 17.99181695 7.13464627 20.9375 8.328125 C23.05623557 9.18260148 25.17515199 10.03662964 27.29423523 10.89024353 C31.83059741 12.7183878 36.36593971 14.54903016 40.90048218 16.38168335 C51.7015167 20.7466031 62.50796978 25.09807431 73.31445885 29.44946861 C75.79370612 30.44779791 78.27290515 31.44624597 80.7520237 32.44489479 C122.11155877 49.10465274 163.5618625 65.53703082 205 82 C205.0700938 107.54742387 205.12299004 133.09483331 205.15543652 158.64233398 C205.17090268 170.50459 205.19198749 182.36678625 205.22631836 194.22900391 C205.25622829 204.56860297 205.27557683 214.90815875 205.28226548 225.24779987 C205.28617502 230.72210867 205.29535792 236.19629365 205.31719017 241.67056274 C205.33758039 246.82510593 205.34382862 251.97947449 205.33932304 257.13405418 C205.3401471 259.02384579 205.34609758 260.91364336 205.35761642 262.80340004 C205.37260027 265.3888402 205.36893226 267.9736259 205.36076355 270.55908203 C205.36950207 271.30229611 205.3782406 272.0455102 205.38724393 272.81124592 C205.33243982 279.25359749 203.92649341 284.70903487 199.6875 289.75 C194.02331896 294.49210505 189.83307798 297.12660553 182.44729233 297.12304783 C181.07682176 297.1260344 181.07682176 297.1260344 179.67866492 297.12908131 C178.67866973 297.12616847 177.67867454 297.12325563 176.64837646 297.12025452 C175.58323515 297.12110894 174.51809384 297.12196337 173.42067552 297.12284368 C169.84000372 297.12449505 166.25937844 297.11898266 162.67871094 297.11352539 C160.11657716 297.11324342 157.5544433 297.11340145 154.99230957 297.1139679 C149.47024694 297.11419585 143.94819937 297.11135346 138.42613983 297.10573006 C130.44215978 297.09760485 122.45818545 297.09499879 114.47420171 297.09374207 C101.52088384 297.09155316 88.56757226 297.08489742 75.61425781 297.07543945 C63.0309248 297.06626118 50.4475935 297.05918237 37.86425781 297.05493164 C37.08868986 297.05466892 36.3131219 297.05440619 35.51405188 297.05413551 C31.62327591 297.05283048 27.73249992 297.05156677 23.84172392 297.05032361 C-8.4388553 297.039956 -40.71942677 297.02234205 -73 297 C-73.00496522 296.06931119 -73.00496522 296.06931119 -73.01003075 295.11982059 C-73.09139116 279.99507623 -73.18352589 264.87043871 -73.28752708 249.7458353 C-73.33756459 242.4315708 -73.38400821 235.117317 -73.421875 227.80297852 C-73.45490414 221.42486475 -73.49479496 215.04683633 -73.54279006 208.66881698 C-73.56794697 205.29437311 -73.58975956 201.91998505 -73.60334396 198.5454731 C-73.62026861 194.77050744 -73.64931949 190.99581264 -73.68115234 187.22094727 C-73.68331253 186.11251465 -73.68547272 185.00408203 -73.68769836 183.86206055 C-73.78088307 175.19008255 -74.10664964 166.82387936 -80 160 C-84.77337333 156.16258222 -88.7960215 154.31597148 -95 154 C-99.06277577 154.60573666 -103.01579028 155.57189048 -107 156.5625 C-108.13614746 156.83698975 -109.27229492 157.11147949 -110.44287109 157.39428711 C-112.79909097 157.96739958 -115.15374869 158.54697089 -117.50683594 159.1328125 C-120.8465938 159.96191649 -124.19184677 160.76413762 -127.5390625 161.5625 C-129.56815322 162.06069148 -131.59682042 162.56061206 -133.625 163.0625 C-134.553125 163.28301025 -135.48125 163.50352051 -136.4375 163.73071289 C-143.54546583 165.54353079 -150.5129954 167.99168318 -154.4375 174.5625 C-156.39194663 178.86228258 -157.1222783 182.14384617 -157.15821838 186.84686279 C-157.1680072 187.81998917 -157.17779602 188.79311554 -157.18788147 189.79573059 C-157.19363693 190.85668442 -157.1993924 191.91763824 -157.20532227 193.01074219 C-157.21522186 194.13298691 -157.22512146 195.25523163 -157.23532104 196.41148376 C-157.26692458 200.12325934 -157.29168908 203.83504771 -157.31640625 207.546875 C-157.33697676 210.11948989 -157.35797325 212.6921014 -157.37937927 215.26470947 C-157.4289459 221.34547574 -157.47421384 227.42626012 -157.51740164 233.50707459 C-157.56681637 240.43088748 -157.62171876 247.35465344 -157.67708123 254.27842093 C-157.79082526 268.5189032 -157.89768075 282.75943128 -158 297 C-164.54696132 297.07637583 -171.09380673 297.12873618 -177.64111328 297.16479492 C-179.86609185 297.17983512 -182.09104101 297.20027246 -184.31591797 297.22631836 C-187.52318606 297.26291135 -190.73006045 297.2797745 -193.9375 297.29296875 C-194.92427734 297.30845261 -195.91105469 297.32393646 -196.92773438 297.33988953 C-204.16752837 297.34163404 -209.541619 296.20078791 -215.75 292.25 C-221.24641206 286.75358794 -223.10713103 280.98068963 -223.12908131 273.32757115 C-223.12616847 272.57270571 -223.12325563 271.81784026 -223.12025452 271.0401001 C-223.12110894 270.23222258 -223.12196337 269.42434507 -223.12284368 268.59198642 C-223.12449225 265.88193982 -223.11898727 263.17195497 -223.11352539 260.46191406 C-223.11324336 258.52046205 -223.11340157 256.57900993 -223.1139679 254.63755798 C-223.11425524 249.36316036 -223.10836855 244.08878539 -223.10139394 238.81439304 C-223.09515005 233.30373308 -223.09455578 227.79307262 -223.09336853 222.28240967 C-223.09025828 211.8454523 -223.08204899 201.40850538 -223.07201904 190.97155261 C-223.06084843 179.09018792 -223.05534506 167.20882273 -223.05032361 155.32745409 C-223.03986614 130.88496359 -223.02227259 106.44248238 -223 82 C-222.19751617 81.68079269 -222.19751617 81.68079269 -221.37882054 81.35513675 C-208.76062253 76.33600729 -208.76062253 76.33600729 -196.14328003 71.31472778 C-185.6522932 67.13854961 -175.16049908 62.96444778 -164.66532135 58.79881096 C-158.43627993 56.32611123 -152.20808566 53.85128478 -145.98046875 51.375 C-145.34915448 51.12399615 -144.71784021 50.8729923 -144.06739521 50.61438227 C-126.12808195 43.480693 -108.22465584 36.26422567 -90.35537952 28.9568969 C-82.51128742 25.74990878 -74.65947507 22.56189071 -66.80754185 19.37415886 C-59.88881373 16.56283568 -52.98167588 13.72508067 -46.08151913 10.86850357 C-41.7868742 9.09791504 -37.48236297 7.35241474 -33.17474937 5.61364746 C-31.1836938 4.80386284 -29.19688176 3.98355137 -27.21485329 3.1519165 C-24.50710171 2.01723013 -21.78668035 0.92091654 -19.06005859 -0.16748047 C-18.28361779 -0.50353743 -17.50717699 -0.83959438 -16.70720768 -1.18583488 C-10.36360104 -3.64336895 -6.18721736 -2.47002767 0 0 Z " fill="#000000" transform="translate(265,173)"/>
<path d="M0 0 C0.67720848 0.26672988 1.35441696 0.53345976 2.05214691 0.80827236 C3.54508411 1.39815188 5.03558083 1.99423623 6.52389526 2.59568405 C9.01474333 3.60062296 11.51271764 4.58579727 14.01293945 5.56716919 C19.87324321 7.8712659 25.72282474 10.20193978 31.57226562 12.53344727 C33.7764658 13.41069865 35.98071089 14.28783719 38.18499756 15.16487122 C45.26300493 17.98183349 52.33959471 20.80234628 59.41601562 23.62329102 C61.8440335 24.59100676 64.27205271 25.55871915 66.70007324 26.52642822 C80.04784061 31.84681588 93.39399574 37.17123357 106.73889542 42.49880981 C114.12446297 45.44714147 121.51109912 48.39277845 128.8984375 51.33666992 C136.67670431 54.43662587 144.45268393 57.54222625 152.22520447 60.65656376 C156.05045774 62.1892775 159.87658618 63.7196874 163.70532227 65.24368286 C167.22501723 66.64485366 170.74170484 68.0533061 174.25611115 69.46768761 C176.09869029 70.20718727 177.9442694 70.93919883 179.78997803 71.67085266 C196.35793559 78.36607836 196.35793559 78.36607836 199.85351562 84.62329102 C200.23378906 85.27426758 200.6140625 85.92524414 201.00585938 86.59594727 C203.05545417 91.02060898 203.05404205 95.27456316 203.02954102 100.08325195 C203.02968704 100.83486099 203.02983307 101.58647003 203.02998352 102.3608551 C203.02928825 104.83898835 203.02151389 107.31704594 203.01367188 109.79516602 C203.01180633 111.51580769 203.01038307 113.23644989 203.00938416 114.95709229 C203.00556975 119.48131787 202.99574865 124.00551124 202.98468018 128.52972412 C202.97444291 133.14814824 202.96988157 137.76657757 202.96484375 142.38500977 C202.95412542 151.44361765 202.93706191 160.50220165 202.91601562 169.56079102 C196.67664627 167.55362455 190.57160384 165.31160026 184.48779297 162.87597656 C183.58382436 162.51643764 182.67985575 162.15689873 181.74849415 161.78646469 C178.74866524 160.59259525 175.75029685 159.39510379 172.75195312 158.19750977 C170.60125851 157.34046818 168.45048445 156.48362595 166.29963684 155.62696838 C161.69717696 153.79332362 157.09536692 151.9580598 152.49398804 150.1217041 C146.47335151 147.71925071 140.451042 145.32102481 134.42813396 142.92427254 C110.0133299 133.20825087 85.61356062 123.45776355 61.25889587 113.5916996 C54.67807785 110.9274722 48.09408006 108.27110821 41.51020432 105.61444759 C35.27933006 103.09874881 29.05473443 100.56822854 22.83424473 98.02696896 C18.98794599 96.45948463 15.13632659 94.90543292 11.28311729 93.35502434 C9.50704167 92.6370564 7.73326742 91.91336444 5.96204567 91.1835041 C3.55302215 90.19155175 1.13669509 89.2200729 -1.2824707 88.25317383 C-1.97619593 87.96170817 -2.66992115 87.67024252 -3.38466835 87.36994457 C-11.39798687 84.22519788 -17.61305994 86.90999052 -25.11401367 89.98681641 C-26.00000716 90.34289884 -26.88600065 90.69898127 -27.79884243 91.06585407 C-30.7549833 92.25604476 -33.70650756 93.45727905 -36.65820312 94.65844727 C-38.77549819 95.51329996 -40.89308987 96.36741831 -43.01095581 97.22085571 C-47.55687374 99.05433424 -52.10083931 100.89254079 -56.64334106 102.73446655 C-63.80184522 105.6369251 -70.96477134 108.52834708 -78.12866211 111.41748047 C-85.55206313 114.41172584 -92.9753288 117.40629681 -100.39717102 120.40440369 C-124.58225875 130.17359487 -148.78694374 139.89355241 -173.00234985 149.58737183 C-178.52433472 151.79818753 -184.04466962 154.0130922 -189.56459427 156.22904587 C-193.6723285 157.87728559 -197.78122437 159.52261268 -201.89047623 161.16706467 C-203.79756087 161.93087645 -205.70418335 162.6958433 -207.61031723 163.46202469 C-210.19736104 164.50164049 -212.78605764 165.53702367 -215.37524414 166.57128906 C-216.51527657 167.03114496 -216.51527657 167.03114496 -217.67833996 167.50029087 C-222.8556669 169.56079102 -222.8556669 169.56079102 -225.08398438 169.56079102 C-225.15364465 159.65944909 -225.20687687 149.75816594 -225.23942089 139.85662842 C-225.25504425 135.25841587 -225.27622139 130.66037159 -225.31030273 126.06225586 C-225.34301535 121.62076169 -225.36086242 117.17942888 -225.3686161 112.73782349 C-225.37413831 111.04742901 -225.38492171 109.35704289 -225.40117455 107.66671753 C-225.42310755 105.29007212 -225.42594476 102.91408463 -225.42456055 100.53735352 C-225.43534637 99.84610886 -225.4461322 99.1548642 -225.45724487 98.44267273 C-225.41514915 91.71707145 -223.59627759 86.80874926 -219.88925171 81.29841614 C-216.54475799 78.03456677 -213.4804622 76.49729805 -209.19970703 74.75878906 C-208.41557749 74.42574359 -207.63144794 74.09269812 -206.8235569 73.74956036 C-204.25173423 72.66599529 -201.66979375 71.61050705 -199.08398438 70.56079102 C-198.21747002 70.20611881 -197.35095566 69.85144661 -196.45818329 69.48602676 C-189.73510322 66.74045864 -182.98544516 64.06368751 -176.23242188 61.39282227 C-174.03070917 60.5187192 -171.82914429 59.6442437 -169.62771606 58.76942444 C-164.97532339 56.92128806 -160.32212271 55.07520858 -155.66821289 53.230896 C-144.74780828 48.90306243 -133.83133253 44.56533882 -122.9151535 40.22686005 C-120.47939619 39.25880572 -118.04358986 38.29087475 -115.60773468 37.32306671 C-99.75425948 31.02354695 -83.91234604 24.69647565 -68.09179688 18.31469727 C-66.80316805 17.7949467 -66.80316805 17.7949467 -65.48850632 17.26469612 C-57.57332357 14.07144793 -49.66036348 10.87274432 -41.75027275 7.6669035 C-38.95547885 6.53467137 -36.1599345 5.40430047 -33.364254 4.27425957 C-31.49429267 3.51741712 -29.62555604 2.75755091 -27.75686646 1.99757385 C-26.66018646 1.55421188 -25.56350647 1.11084991 -24.43359375 0.65405273 C-23.48915405 0.27078827 -22.54471436 -0.1124762 -21.57165527 -0.50735474 C-13.91507833 -3.37542452 -7.56412739 -3.03081385 0 0 Z " fill="#000000" transform="translate(267.083984375,44.439208984375)"/>
</svg>
