<svg width="30" height="30" viewBox="0 0 30 30" fill="none" xmlns="http://www.w3.org/2000/svg">
<path d="M19.8751 16.5C19.7501 16.5 19.7501 16.375 19.6251 16.375C21.5001 15 22.5001 12.875 22.5001 10.5V9.625L22.8751 6.625C23.1251 4.625 21.7501 2.875 19.8751 2.5L18.7501 2.25C16.2501 1.875 13.7501 1.875 11.2501 2.25L10.2501 2.5C8.2501 2.875 6.8751 4.625 7.1251 6.625L7.5001 9.625V10.5C7.5001 12.75 8.5001 15 10.3751 16.375C10.2501 16.375 10.2501 16.5 10.1251 16.5C6.0001 18.25 3.1251 22.125 2.6251 26.625C2.5001 27.25 3.0001 27.875 3.7501 28C4.5001 28.125 25.6251 28 26.2501 28H26.3751C27.0001 27.875 27.5001 27.25 27.5001 26.625C26.8751 22.125 24.0001 18.25 19.8751 16.5ZM15.0001 20.375L12.8751 18.25C14.2501 18 15.6251 18 17.0001 18.25L15.0001 20.375ZM15.0001 15.5C12.2501 15.5 10.1251 13.375 10.0001 10.625H20.0001C19.8751 13.375 17.7501 15.5 15.0001 15.5Z" fill="black"/>
</svg>
