<svg width="20" height="14" viewBox="0 0 20 14" fill="none" xmlns="http://www.w3.org/2000/svg">
<path d="M19 0H1C0.45 0 0 0.45 0 1V4.55C0 5.03 0.33 5.44 0.8 5.53C1.13992 5.59785 1.44582 5.78141 1.66563 6.04943C1.88544 6.31746 2.00557 6.65337 2.00557 7C2.00557 7.34663 1.88544 7.68254 1.66563 7.95057C1.44582 8.21859 1.13992 8.40215 0.8 8.47C0.33 8.56 0 8.97 0 9.45V13C0 13.55 0.45 14 1 14H19C19.55 14 20 13.55 20 13V9.45C20 8.97 19.67 8.56 19.2 8.47C18.8601 8.40215 18.5542 8.21859 18.3344 7.95057C18.1146 7.68254 17.9944 7.34663 17.9944 7C17.9944 6.65337 18.1146 6.31746 18.3344 6.04943C18.5542 5.78141 18.8601 5.59785 19.2 5.53C19.67 5.44 20 5.03 20 4.55V1C20 0.45 19.55 0 19 0ZM18 3.84C16.8 4.41 16 5.63 16 7C16 8.37 16.8 9.59 18 10.16V12H14V10H13V12H2V10.16C3.2 9.59 4 8.37 4 7C4 5.63 3.2 4.41 2 3.84V2H13V3H14V2H18V3.84Z" fill="black"/>
</svg>
