<svg width="18" height="15" viewBox="0 0 18 15" fill="none" xmlns="http://www.w3.org/2000/svg">
<path d="M1.25 0C0.91848 0 0.600537 0.131696 0.366117 0.366117C0.131696 0.600537 0 0.918479 0 1.25C0 1.58152 0.131696 1.89946 0.366117 2.13388C0.600537 2.3683 0.91848 2.5 1.25 2.5H1.26C1.59152 2.5 1.90946 2.3683 2.14388 2.13388C2.3783 1.89946 2.51 1.58152 2.51 1.25C2.51 0.918479 2.3783 0.600537 2.14388 0.366117C1.90946 0.131696 1.59152 0 1.26 0H1.25ZM5.24 0.5C5.04109 0.5 4.85032 0.579018 4.70967 0.71967C4.56902 0.860322 4.49 1.05109 4.49 1.25C4.49 1.44891 4.56902 1.63968 4.70967 1.78033C4.85032 1.92098 5.04109 2 5.24 2H17.24C17.4389 2 17.6297 1.92098 17.7703 1.78033C17.911 1.63968 17.99 1.44891 17.99 1.25C17.99 1.05109 17.911 0.860322 17.7703 0.71967C17.6297 0.579018 17.4389 0.5 17.24 0.5H5.24ZM5.24 12.5C5.04109 12.5 4.85032 12.579 4.70967 12.7197C4.56902 12.8603 4.49 13.0511 4.49 13.25C4.49 13.4489 4.56902 13.6397 4.70967 13.7803C4.85032 13.921 5.04109 14 5.24 14H17.24C17.4389 14 17.6297 13.921 17.7703 13.7803C17.911 13.6397 17.99 13.4489 17.99 13.25C17.99 13.0511 17.911 12.8603 17.7703 12.7197C17.6297 12.579 17.4389 12.5 17.24 12.5H5.24ZM4.49 7.25C4.49 7.05109 4.56902 6.86032 4.70967 6.71967C4.85032 6.57902 5.04109 6.5 5.24 6.5H17.24C17.4389 6.5 17.6297 6.57902 17.7703 6.71967C17.911 6.86032 17.99 7.05109 17.99 7.25C17.99 7.44891 17.911 7.63968 17.7703 7.78033C17.6297 7.92098 17.4389 8 17.24 8H5.24C5.04109 8 4.85032 7.92098 4.70967 7.78033C4.56902 7.63968 4.49 7.44891 4.49 7.25ZM0 7.25C0 6.56 0.56 6 1.25 6H1.26C1.59152 6 1.90946 6.1317 2.14388 6.36612C2.3783 6.60054 2.51 6.91848 2.51 7.25C2.51 7.58152 2.3783 7.89946 2.14388 8.13388C1.90946 8.3683 1.59152 8.5 1.26 8.5H1.25C0.56 8.5 0 7.94 0 7.25ZM1.25 12C0.91848 12 0.600537 12.1317 0.366117 12.3661C0.131696 12.6005 0 12.9185 0 13.25C0 13.5815 0.131696 13.8995 0.366117 14.1339C0.600537 14.3683 0.91848 14.5 1.25 14.5H1.26C1.59152 14.5 1.90946 14.3683 2.14388 14.1339C2.3783 13.8995 2.51 13.5815 2.51 13.25C2.51 12.9185 2.3783 12.6005 2.14388 12.3661C1.90946 12.1317 1.59152 12 1.26 12H1.25Z" fill="black"/>
</svg>
