<svg width="30" height="30" viewBox="0 0 30 30" fill="none" xmlns="http://www.w3.org/2000/svg">
<path d="M1.875 8.90625C1.875 7.78737 2.31947 6.71431 3.11064 5.92314C3.90181 5.13197 4.97487 4.6875 6.09375 4.6875H23.9062C25.0251 4.6875 26.0982 5.13197 26.8894 5.92314C27.6805 6.71431 28.125 7.78737 28.125 8.90625V21.0938C28.125 22.2126 27.6805 23.2857 26.8894 24.0769C26.0982 24.868 25.0251 25.3125 23.9062 25.3125H6.09375C4.97487 25.3125 3.90181 24.868 3.11064 24.0769C2.31947 23.2857 1.875 22.2126 1.875 21.0938V8.90625ZM6.09375 6.5625C5.47215 6.5625 4.87601 6.80943 4.43647 7.24897C3.99693 7.68851 3.75 8.28465 3.75 8.90625V10.3125H26.25V8.90625C26.25 8.28465 26.0031 7.68851 25.5635 7.24897C25.124 6.80943 24.5279 6.5625 23.9062 6.5625H6.09375ZM3.75 21.0938C3.75 21.7154 3.99693 22.3115 4.43647 22.751C4.87601 23.1906 5.47215 23.4375 6.09375 23.4375H23.9062C24.5279 23.4375 25.124 23.1906 25.5635 22.751C26.0031 22.3115 26.25 21.7154 26.25 21.0938V12.1875H3.75V21.0938ZM19.6875 17.8125H22.5C22.7486 17.8125 22.9871 17.9113 23.1629 18.0871C23.3387 18.2629 23.4375 18.5014 23.4375 18.75C23.4375 18.9986 23.3387 19.2371 23.1629 19.4129C22.9871 19.5887 22.7486 19.6875 22.5 19.6875H19.6875C19.4389 19.6875 19.2004 19.5887 19.0246 19.4129C18.8488 19.2371 18.75 18.9986 18.75 18.75C18.75 18.5014 18.8488 18.2629 19.0246 18.0871C19.2004 17.9113 19.4389 17.8125 19.6875 17.8125Z" fill="black"/>
</svg>
