<svg width="20" height="20" viewBox="0 0 20 20" fill="none" xmlns="http://www.w3.org/2000/svg">
<path d="M8.3854 14.0382L18.1354 4.28825C18.5124 3.89245 18.7197 3.36494 18.713 2.81837C18.7063 2.2718 18.4862 1.74951 18.0996 1.36307C17.713 0.976623 17.1906 0.756655 16.6441 0.750149C16.0975 0.743642 15.5701 0.951113 15.1744 1.32825L5.4244 11.0772H3.3884C3.0144 11.0772 2.8274 11.0772 2.6454 11.1112C2.53673 11.1312 2.43073 11.1606 2.3274 11.1992C2.1544 11.2632 1.9934 11.3592 1.6724 11.5522C1.0964 11.8982 0.808395 12.0712 0.762395 12.2752C0.735723 12.3928 0.752414 12.516 0.809395 12.6222C0.910395 12.8062 1.2344 12.8952 1.8824 13.0722L5.4254 14.0382L6.3924 17.5812C6.5684 18.2292 6.6574 18.5532 6.8414 18.6542C6.9474 18.7112 7.0714 18.7292 7.1884 18.7012C7.3924 18.6552 7.5654 18.3672 7.9114 17.7912C8.1034 17.4702 8.2004 17.3092 8.2644 17.1362C8.3024 17.0329 8.33173 16.9266 8.3524 16.8172C8.3864 16.6372 8.38639 16.4492 8.38639 16.0752L8.3854 14.0382Z" stroke="#1A4CFF" stroke-width="1.5" stroke-linecap="round" stroke-linejoin="round"/>
<path d="M15.2486 7.21436V15.1604C15.2486 15.8504 15.0616 16.5264 14.7056 17.1184C14.6152 17.2683 14.4853 17.3905 14.33 17.4714C14.1747 17.5523 14.0001 17.5888 13.8255 17.577C13.6508 17.5651 13.4827 17.5052 13.3399 17.404C13.197 17.3028 13.0848 17.1642 13.0156 17.0034L10.7486 11.7144M12.2486 4.21436H4.30258C3.61258 4.21436 2.93658 4.40236 2.34458 4.75636C2.19433 4.84661 2.07191 4.9766 1.99082 5.13199C1.90973 5.28739 1.87311 5.46215 1.88501 5.63702C1.8969 5.81189 1.95684 5.98009 2.05822 6.12307C2.1596 6.26605 2.29849 6.37827 2.45958 6.44736L7.74858 8.71436" stroke="#1A4CFF" stroke-width="1.5" stroke-linecap="round" stroke-linejoin="round"/>
</svg>
