<svg width="22" height="22" viewBox="0 0 22 22" fill="none" xmlns="http://www.w3.org/2000/svg">
<path fill-rule="evenodd" clip-rule="evenodd" d="M15.5833 2.75C16.0696 2.75 16.5359 2.94315 16.8797 3.28697C17.2235 3.63079 17.4167 4.0971 17.4167 4.58333V5.5H18.3333C18.5764 5.5 18.8096 5.59658 18.9815 5.76849C19.1534 5.94039 19.25 6.17355 19.25 6.41667C19.25 6.65978 19.1534 6.89294 18.9815 7.06485C18.8096 7.23676 18.5764 7.33333 18.3333 7.33333V17.4167C18.5764 17.4167 18.8096 17.5132 18.9815 17.6852C19.1534 17.8571 19.25 18.0902 19.25 18.3333C19.25 18.5764 19.1534 18.8096 18.9815 18.9815C18.8096 19.1534 18.5764 19.25 18.3333 19.25H12.375V15.125C12.375 14.7603 12.2301 14.4106 11.9723 14.1527C11.7144 13.8949 11.3647 13.75 11 13.75C10.6353 13.75 10.2856 13.8949 10.0277 14.1527C9.76987 14.4106 9.625 14.7603 9.625 15.125V19.25H3.66667C3.42355 19.25 3.19039 19.1534 3.01849 18.9815C2.84658 18.8096 2.75 18.5764 2.75 18.3333C2.75 18.0902 2.84658 17.8571 3.01849 17.6852C3.19039 17.5132 3.42355 17.4167 3.66667 17.4167V7.33333C3.42355 7.33333 3.19039 7.23676 3.01849 7.06485C2.84658 6.89294 2.75 6.65978 2.75 6.41667C2.75 6.17355 2.84658 5.94039 3.01849 5.76849C3.19039 5.59658 3.42355 5.5 3.66667 5.5H4.58333V4.58333C4.58333 4.0971 4.77649 3.63079 5.1203 3.28697C5.46412 2.94315 5.93044 2.75 6.41667 2.75H15.5833ZM7.33333 11.9167C7.09022 11.9167 6.85706 12.0132 6.68515 12.1852C6.51324 12.3571 6.41667 12.5902 6.41667 12.8333V13.75C6.41667 13.9931 6.51324 14.2263 6.68515 14.3982C6.85706 14.5701 7.09022 14.6667 7.33333 14.6667C7.57645 14.6667 7.80961 14.5701 7.98151 14.3982C8.15342 14.2263 8.25 13.9931 8.25 13.75V12.8333C8.25 12.5902 8.15342 12.3571 7.98151 12.1852C7.80961 12.0132 7.57645 11.9167 7.33333 11.9167ZM14.6667 11.9167C14.4421 11.9167 14.2254 11.9991 14.0577 12.1483C13.8899 12.2975 13.7827 12.5031 13.7564 12.7261L13.75 12.8333V13.75C13.7503 13.9836 13.8397 14.2084 14.0001 14.3783C14.1605 14.5481 14.3797 14.6504 14.6129 14.6641C14.8462 14.6778 15.0758 14.6019 15.255 14.4519C15.4342 14.302 15.5493 14.0893 15.5769 13.8573L15.5833 13.75V12.8333C15.5833 12.5902 15.4868 12.3571 15.3148 12.1852C15.1429 12.0132 14.9098 11.9167 14.6667 11.9167ZM7.33333 8.25C7.10881 8.25003 6.89211 8.33246 6.72433 8.48166C6.55654 8.63085 6.44935 8.83644 6.42308 9.05942L6.41667 9.16667V10.0833C6.41693 10.317 6.50639 10.5417 6.66678 10.7116C6.82717 10.8815 7.04637 10.9837 7.27961 10.9974C7.51285 11.0111 7.74251 10.9352 7.92168 10.7853C8.10085 10.6353 8.21599 10.4226 8.24358 10.1906L8.25 10.0833V9.16667C8.25 8.92355 8.15342 8.69039 7.98151 8.51849C7.80961 8.34658 7.57645 8.25 7.33333 8.25ZM11 8.25C10.7755 8.25003 10.5588 8.33246 10.391 8.48166C10.2232 8.63085 10.116 8.83644 10.0898 9.05942L10.0833 9.16667V10.0833C10.0836 10.317 10.1731 10.5417 10.3334 10.7116C10.4938 10.8815 10.713 10.9837 10.9463 10.9974C11.1795 11.0111 11.4092 10.9352 11.5883 10.7853C11.7675 10.6353 11.8827 10.4226 11.9103 10.1906L11.9167 10.0833V9.16667C11.9167 8.92355 11.8201 8.69039 11.6482 8.51849C11.4763 8.34658 11.2431 8.25 11 8.25ZM14.6667 8.25C14.4236 8.25 14.1904 8.34658 14.0185 8.51849C13.8466 8.69039 13.75 8.92355 13.75 9.16667V10.0833C13.75 10.3264 13.8466 10.5596 14.0185 10.7315C14.1904 10.9034 14.4236 11 14.6667 11C14.9098 11 15.1429 10.9034 15.3148 10.7315C15.4868 10.5596 15.5833 10.3264 15.5833 10.0833V9.16667C15.5833 8.92355 15.4868 8.69039 15.3148 8.51849C15.1429 8.34658 14.9098 8.25 14.6667 8.25ZM15.5833 4.58333H6.41667V5.5H15.5833V4.58333Z" fill="#6B6B6B"/>
</svg>
