<svg width="13" height="16" viewBox="0 0 13 16" fill="none" xmlns="http://www.w3.org/2000/svg">
<path d="M5.885 15.293L5.693 15.163C4.73208 14.4907 3.83917 13.726 3.027 12.88C1.6 11.385 0 9.144 0 6.499C0 3.245 2.641 0 6.5 0C10.359 0 13 3.245 13 6.5C13 9.145 11.4 11.386 9.973 12.879C9.16083 13.725 8.26792 14.4897 7.307 15.162C7.22567 15.2187 7.16167 15.262 7.115 15.292C6.912 15.427 6.705 15.555 6.5 15.685C6.295 15.555 6.088 15.427 5.885 15.293ZM6.5 8.5C7.03043 8.5 7.53914 8.28929 7.91421 7.91421C8.28929 7.53914 8.5 7.03043 8.5 6.5C8.5 5.96957 8.28929 5.46086 7.91421 5.08579C7.53914 4.71071 7.03043 4.5 6.5 4.5C5.96957 4.5 5.46086 4.71071 5.08579 5.08579C4.71071 5.46086 4.5 5.96957 4.5 6.5C4.5 7.03043 4.71071 7.53914 5.08579 7.91421C5.46086 8.28929 5.96957 8.5 6.5 8.5Z" fill="black"/>
</svg>
