<svg width="18" height="15" viewBox="0 0 18 15" fill="none" xmlns="http://www.w3.org/2000/svg">
<path d="M16.1096 5.75C17.0753 5.75 17.8596 6.53438 17.8596 7.5C17.8596 8.46562 17.0753 9.25 16.1096 9.25H12.1315L7.15652 14.675C6.9659 14.8812 6.70027 15 6.41902 15H5.0534C4.71277 15 4.47215 14.6656 4.5784 14.3406L6.27527 9.25H3.15965L1.50965 11.3125C1.4159 11.4312 1.27215 11.5 1.11902 11.5H0.500272C0.175272 11.5 -0.0622284 11.1938 0.0158966 10.8781L0.859647 7.5L0.0158966 4.12187C-0.0653534 3.80625 0.175272 3.5 0.500272 3.5H1.11902C1.27215 3.5 1.4159 3.56875 1.50965 3.6875L3.15965 5.75H6.27527L4.5784 0.659375C4.47215 0.334375 4.71277 0 5.0534 0H6.41902C6.70027 0 6.9659 0.11875 7.15652 0.325L12.1315 5.75H16.1096Z" fill="black"/>
</svg>
