<svg width="54" height="56" viewBox="0 0 54 56" fill="none" xmlns="http://www.w3.org/2000/svg">
<path d="M36.8408 31C36.5742 31 36.5742 30.7333 36.3075 30.7333C40.3075 27.8 42.4408 23.2667 42.4408 18.2V16.3333L43.2408 9.93333C43.7742 5.66667 40.8408 1.93333 36.8408 1.13333L34.4408 0.6C29.1075 -0.2 23.7742 -0.2 18.4408 0.6L16.3075 1.13333C12.0408 1.93333 9.1075 5.66667 9.64084 9.93333L10.4408 16.3333V18.2C10.4408 23 12.5742 27.8 16.5742 30.7333C16.3075 30.7333 16.3075 31 16.0408 31C7.24084 34.7333 1.1075 43 0.0408383 52.6C-0.225828 53.9333 0.840838 55.2667 2.44084 55.5333C4.04084 55.8 49.1075 55.5333 50.4408 55.5333H50.7075C52.0408 55.2667 53.1075 53.9333 53.1075 52.6C51.7742 43 45.6408 34.7333 36.8408 31ZM26.4408 39.2667L21.9075 34.7333C24.8408 34.2 27.7742 34.2 30.7075 34.7333L26.4408 39.2667ZM26.4408 28.8667C20.5742 28.8667 16.0408 24.3333 15.7742 18.4667H37.1075C36.8408 24.3333 32.3075 28.8667 26.4408 28.8667Z" fill="white"/>
</svg>
