<svg width="45" height="45" viewBox="0 0 45 45" fill="none" xmlns="http://www.w3.org/2000/svg">
<g clip-path="url(#clip0_128_819)">
<path d="M15.6762 1.48006C11.18 3.03984 7.30245 6.00034 4.61316 9.92671C1.92387 13.8531 0.564567 18.5384 0.734903 23.2944C0.905238 28.0504 2.59624 32.6265 5.55952 36.3504C8.5228 40.0743 12.6022 42.7498 17.1984 43.984C20.9247 44.9455 24.8288 44.9877 28.575 44.107C31.9687 43.3447 35.1062 41.7142 37.6805 39.375C40.3596 36.8661 42.3043 33.6743 43.3055 30.143C44.3936 26.3027 44.5872 22.2642 43.8715 18.3375H22.9465V27.0176H35.0648C34.8226 28.402 34.3036 29.7233 33.5389 30.9024C32.7741 32.0816 31.7793 33.0943 30.6141 33.8801C29.1343 34.8589 27.4661 35.5175 25.7168 35.8137C23.9623 36.1399 22.1627 36.1399 20.4082 35.8137C18.6299 35.446 16.9478 34.7121 15.4687 33.6586C13.0927 31.9767 11.3086 29.5872 10.3711 26.8312C9.4177 24.0236 9.4177 20.9799 10.3711 18.1723C11.0384 16.2043 12.1417 14.4124 13.5984 12.9305C15.2655 11.2034 17.3761 9.96888 19.6986 9.36236C22.0211 8.75584 24.4658 8.80076 26.7644 9.49217C28.5601 10.0434 30.2022 11.0065 31.5598 12.3047C32.9262 10.9453 34.2902 9.58241 35.6519 8.216C36.3551 7.48124 37.1215 6.78163 37.8141 6.02928C35.7418 4.10088 33.3094 2.60034 30.6562 1.61366C25.8247 -0.140675 20.5382 -0.187821 15.6762 1.48006Z" fill="white"/>
<path d="M15.6762 1.48006C20.5378 -0.188955 25.8244 -0.14305 30.6563 1.61014C33.3099 2.60353 35.7412 4.11129 37.8106 6.04686C37.1074 6.7992 36.3656 7.50233 35.6485 8.23358C34.2844 9.5953 32.9215 10.9523 31.5598 12.3047C30.2022 11.0065 28.5601 10.0434 26.7645 9.49217C24.4666 8.79833 22.022 8.75083 19.6988 9.35486C17.3757 9.9589 15.2639 11.1911 13.5949 12.9164C12.1382 14.3984 11.035 16.1902 10.3676 18.1582L3.07971 12.5156C5.68833 7.34258 10.205 3.38562 15.6762 1.48006Z" fill="#E33629"/>
<path d="M1.14607 18.1055C1.53779 16.1641 2.18812 14.2841 3.07967 12.5156L10.3676 18.1723C9.41417 20.9799 9.41417 24.0236 10.3676 26.8312C7.93943 28.7062 5.51013 30.5906 3.07967 32.4844C0.847773 28.0417 0.167085 22.9799 1.14607 18.1055Z" fill="#F8BD00"/>
<path d="M22.9465 18.334H43.8715C44.5873 22.2607 44.3937 26.2992 43.3055 30.1395C42.3044 33.6708 40.3597 36.8625 37.6805 39.3715C35.3285 37.5363 32.966 35.7152 30.6141 33.8801C31.7801 33.0936 32.7754 32.0797 33.5402 30.8993C34.305 29.7189 34.8236 28.3962 35.0649 27.0105H22.9465C22.943 24.1207 22.9465 21.2273 22.9465 18.334Z" fill="#587DBD"/>
<path d="M3.07617 32.4844C5.50664 30.6094 7.93594 28.725 10.3641 26.8312C11.3035 29.5882 13.0901 31.9777 15.4688 33.6586C16.9524 34.7072 18.6382 35.4351 20.4188 35.7961C22.1732 36.1223 23.9729 36.1223 25.7273 35.7961C27.4767 35.5 29.1448 34.8413 30.6246 33.8625C32.9766 35.6976 35.3391 37.5187 37.691 39.3539C35.1172 41.6943 31.9796 43.3261 28.5855 44.0894C24.8393 44.9701 20.9353 44.9279 17.209 43.9664C14.2618 43.1795 11.509 41.7923 9.12305 39.8918C6.59764 37.8868 4.535 35.36 3.07617 32.4844Z" fill="#319F43"/>
</g>
<defs>
<clipPath id="clip0_128_819">
<rect width="45" height="45" rx="10" fill="white"/>
</clipPath>
</defs>
</svg>
