<svg width="64" height="64" viewBox="0 0 64 64" fill="none" xmlns="http://www.w3.org/2000/svg">
<path d="M58.8801 17.92H43.5201V12.8307C43.5201 9.18144 41.1636 5.12 37.5181 5.12H25.2404C21.5911 5.12 19.2001 9.18144 19.2001 12.8307V17.92H5.12006C3.71206 17.92 2.56006 19.072 2.56006 20.48V57.6C2.56006 59.008 3.71206 60.16 5.12006 60.16H58.8801C60.2881 60.16 61.4401 59.008 61.4401 57.6V20.48C61.4401 19.072 60.2881 17.92 58.8801 17.92ZM38.4001 56.32H24.3201V54.9542C24.3201 54.9248 25.1047 54.8864 25.4797 54.8416C25.8548 54.7968 26.1837 54.7213 26.4538 54.6163C26.9338 54.4358 27.4714 54.1773 27.6673 53.8406C27.8631 53.504 28.1601 53.056 28.1601 52.5018V39.4074C28.1601 38.8826 27.8426 38.4205 27.602 38.0237C27.3613 37.6269 26.9633 37.3069 26.6036 37.0675C26.3335 36.887 26.1441 36.7155 25.5962 36.5504C25.0484 36.3853 24.3201 36.279 24.3201 36.2342V34.592L34.7841 34.007L34.5601 34.3437V52.2086C34.5601 52.7334 34.9645 53.1802 35.1898 53.5475C35.4151 53.9149 35.8836 54.1888 36.3034 54.3693C36.6029 54.5037 36.9242 54.624 37.2852 54.729C37.6461 54.8339 38.4001 54.9082 38.4001 54.9542V56.32ZM26.3924 25.9059C26.3924 24.7659 26.831 23.7909 27.7082 22.9811C29.0241 21.7664 29.6321 21.7664 30.8468 21.7664C32.0615 21.7664 33.1047 22.1709 33.9738 22.9811C34.8429 23.7914 35.2794 24.7667 35.2794 25.9059C35.2794 27.0451 34.8404 28.0166 33.9636 28.8192C33.0868 29.6218 32.0474 30.0224 30.8468 30.0224C29.6316 30.0224 28.5854 29.6213 27.7082 28.8192C26.3924 27.616 26.3924 27.0464 26.3924 25.9059ZM39.6801 17.92H23.0401V12.8307C23.0401 11.465 24.4225 8.96 25.7882 8.96H36.0948C37.458 8.96 39.6801 11.465 39.6801 12.8307V17.92Z" fill="#FFFFFF"/>
</svg>
